<svg width="200" height="200" viewBox="0 0 200 200" fill="none" xmlns="http://www.w3.org/2000/svg">
<circle cx="100" cy="100" r="100" fill="white"/>
<path d="M149.394 149.722V163.792C149.394 165.516 148.761 167.181 147.615 168.47C146.469 169.759 144.889 170.582 143.177 170.784L142.353 170.833H57.8527C55.9851 170.833 54.1941 170.091 52.8735 168.771C51.5529 167.45 50.811 165.659 50.811 163.792V149.751C50.811 147.883 51.5529 146.092 52.8735 144.771C54.1941 143.451 55.9851 142.709 57.8527 142.709L142.353 142.681C144.22 142.681 146.011 143.423 147.332 144.743C148.652 146.064 149.394 147.855 149.394 149.722ZM100.103 30C106.807 29.9987 113.373 31.9118 119.028 35.5144C124.682 39.117 129.191 44.2592 132.023 50.3363L132.445 51.301L133.403 51.2377C141.137 50.8878 148.77 53.0968 155.122 57.5228C161.474 61.9488 166.19 68.345 168.541 75.7215L168.984 77.2214C171.147 85.2052 170.43 93.6957 166.959 101.204C163.487 108.712 157.483 114.758 150 118.281L149.387 118.542V128.597C149.387 130.465 148.645 132.256 147.325 133.577C146.004 134.897 144.213 135.639 142.346 135.639L57.8457 135.667C56.1209 135.667 54.4562 135.034 53.1674 133.888C51.8785 132.742 51.0551 131.162 50.8533 129.449L50.804 128.626V118.535L49.9379 118.148C45.6048 116.062 41.7449 113.111 38.5961 109.477C35.4473 105.842 33.0764 101.601 31.6295 97.0155L31.1789 95.4452C29.7398 90.0247 29.6164 84.3389 30.819 78.8611C32.0215 73.3832 34.5153 68.2719 38.0926 63.9527C41.6699 59.6335 46.2273 56.2313 51.3852 54.0294C56.5432 51.8276 62.1526 50.8897 67.7462 51.294L68.211 50.2941C70.9319 44.4751 75.1929 39.5113 80.5326 35.9403C85.8723 32.3693 92.0872 30.3273 98.5042 30.0352L100.103 30Z" fill="black"/>
</svg>
